<svg width="1150" height="766" viewBox="0 0 1150 766" fill="none" xmlns="http://www.w3.org/2000/svg">
<rect width="1150" height="766" rx="10" fill="#3259E2"/>
<path d="M444.864 702V691.472H441.584V690.304H449.392V691.472H446.128V702H444.864ZM451.833 702V690.32H453.097V693.072V694.768H453.417L453.065 695.28C453.065 694.576 453.279 694.027 453.705 693.632C454.143 693.237 454.735 693.04 455.481 693.04C456.356 693.04 457.055 693.317 457.577 693.872C458.1 694.416 458.361 695.157 458.361 696.096V702H457.097V696.24C457.097 695.568 456.921 695.045 456.569 694.672C456.217 694.299 455.737 694.112 455.129 694.112C454.5 694.112 454.004 694.309 453.641 694.704C453.279 695.099 453.097 695.648 453.097 696.352V702H451.833ZM461.283 702V700.848H464.419V694.352H461.683V693.2H465.699V700.848H468.675V702H461.283ZM464.915 691.584C464.584 691.584 464.318 691.499 464.115 691.328C463.923 691.157 463.827 690.923 463.827 690.624C463.827 690.315 463.923 690.069 464.115 689.888C464.318 689.707 464.584 689.616 464.915 689.616C465.246 689.616 465.507 689.707 465.699 689.888C465.902 690.069 466.003 690.315 466.003 690.624C466.003 690.912 465.902 691.147 465.699 691.328C465.507 691.499 465.246 691.584 464.915 691.584ZM473.949 702.144C473.373 702.144 472.866 702.048 472.429 701.856C471.991 701.664 471.645 701.397 471.389 701.056C471.133 700.704 470.978 700.299 470.925 699.84H472.189C472.263 700.192 472.45 700.475 472.749 700.688C473.058 700.901 473.458 701.008 473.949 701.008H474.733C475.298 701.008 475.725 700.885 476.013 700.64C476.311 700.384 476.461 700.048 476.461 699.632C476.461 699.237 476.333 698.917 476.077 698.672C475.821 698.427 475.453 698.267 474.973 698.192L473.645 697.984C472.813 697.845 472.183 697.579 471.757 697.184C471.341 696.789 471.133 696.235 471.133 695.52C471.133 694.741 471.383 694.139 471.885 693.712C472.397 693.275 473.133 693.056 474.093 693.056H474.717C475.549 693.056 476.215 693.253 476.717 693.648C477.229 694.043 477.538 694.576 477.645 695.248H476.365C476.301 694.928 476.125 694.672 475.837 694.48C475.559 694.288 475.186 694.192 474.717 694.192H474.093C473.527 694.192 473.106 694.309 472.829 694.544C472.551 694.768 472.413 695.093 472.413 695.52C472.413 695.904 472.53 696.197 472.765 696.4C472.999 696.592 473.357 696.725 473.837 696.8L475.149 697.008C476.023 697.147 476.674 697.424 477.101 697.84C477.527 698.245 477.741 698.816 477.741 699.552C477.741 700.352 477.485 700.987 476.973 701.456C476.461 701.915 475.714 702.144 474.733 702.144H473.949ZM490.064 702V700.848H493.2V694.352H490.464V693.2H494.48V700.848H497.456V702H490.064ZM493.696 691.584C493.366 691.584 493.099 691.499 492.896 691.328C492.704 691.157 492.608 690.923 492.608 690.624C492.608 690.315 492.704 690.069 492.896 689.888C493.099 689.707 493.366 689.616 493.696 689.616C494.027 689.616 494.288 689.707 494.48 689.888C494.683 690.069 494.784 690.315 494.784 690.624C494.784 690.912 494.683 691.147 494.48 691.328C494.288 691.499 494.027 691.584 493.696 691.584ZM502.73 702.144C502.154 702.144 501.647 702.048 501.21 701.856C500.773 701.664 500.426 701.397 500.17 701.056C499.914 700.704 499.759 700.299 499.706 699.84H500.97C501.045 700.192 501.231 700.475 501.53 700.688C501.839 700.901 502.239 701.008 502.73 701.008H503.514C504.079 701.008 504.506 700.885 504.794 700.64C505.093 700.384 505.242 700.048 505.242 699.632C505.242 699.237 505.114 698.917 504.858 698.672C504.602 698.427 504.234 698.267 503.754 698.192L502.426 697.984C501.594 697.845 500.965 697.579 500.538 697.184C500.122 696.789 499.914 696.235 499.914 695.52C499.914 694.741 500.165 694.139 500.666 693.712C501.178 693.275 501.914 693.056 502.874 693.056H503.498C504.33 693.056 504.997 693.253 505.498 693.648C506.01 694.043 506.319 694.576 506.426 695.248H505.146C505.082 694.928 504.906 694.672 504.618 694.48C504.341 694.288 503.967 694.192 503.498 694.192H502.874C502.309 694.192 501.887 694.309 501.61 694.544C501.333 694.768 501.194 695.093 501.194 695.52C501.194 695.904 501.311 696.197 501.546 696.4C501.781 696.592 502.138 696.725 502.618 696.8L503.93 697.008C504.805 697.147 505.455 697.424 505.882 697.84C506.309 698.245 506.522 698.816 506.522 699.552C506.522 700.352 506.266 700.987 505.754 701.456C505.242 701.915 504.495 702.144 503.514 702.144H502.73ZM521.549 702.16C520.622 702.16 519.891 701.925 519.358 701.456C518.824 700.976 518.558 700.331 518.558 699.52C518.558 698.72 518.819 698.091 519.342 697.632C519.864 697.163 520.568 696.928 521.454 696.928H524.254V696C524.254 695.413 524.083 694.96 523.742 694.64C523.4 694.32 522.915 694.16 522.286 694.16C521.731 694.16 521.267 694.283 520.894 694.528C520.531 694.773 520.323 695.104 520.27 695.52H518.99C519.096 694.763 519.448 694.16 520.046 693.712C520.654 693.264 521.411 693.04 522.318 693.04C523.299 693.04 524.078 693.307 524.654 693.84C525.23 694.363 525.517 695.072 525.517 695.968V702H524.27V700.288H524.062L524.302 700.032C524.302 700.683 524.051 701.2 523.55 701.584C523.048 701.968 522.382 702.16 521.549 702.16ZM521.854 701.136C522.558 701.136 523.134 700.96 523.582 700.608C524.03 700.256 524.254 699.797 524.254 699.232V697.904H521.47C520.968 697.904 520.568 698.043 520.27 698.32C519.971 698.597 519.822 698.976 519.822 699.456C519.822 699.968 520.003 700.379 520.366 700.688C520.728 700.987 521.224 701.136 521.854 701.136ZM528.583 702V693.2H529.847V694.832H530.167L529.815 695.296C529.815 694.592 530.029 694.043 530.455 693.648C530.893 693.243 531.485 693.04 532.231 693.04C533.106 693.04 533.805 693.317 534.327 693.872C534.85 694.416 535.111 695.157 535.111 696.096V702H533.847V696.24C533.847 695.568 533.671 695.051 533.319 694.688C532.967 694.325 532.487 694.144 531.879 694.144C531.25 694.144 530.754 694.336 530.391 694.72C530.029 695.104 529.847 695.648 529.847 696.352V702H528.583ZM547.627 702V700.848H550.763V694.352H548.027V693.2H552.043V700.848H555.019V702H547.627ZM551.259 691.584C550.928 691.584 550.661 691.499 550.459 691.328C550.267 691.157 550.171 690.923 550.171 690.624C550.171 690.315 550.267 690.069 550.459 689.888C550.661 689.707 550.928 689.616 551.259 689.616C551.589 689.616 551.851 689.707 552.043 689.888C552.245 690.069 552.347 690.315 552.347 690.624C552.347 690.912 552.245 691.147 552.043 691.328C551.851 691.499 551.589 691.584 551.259 691.584ZM557.365 702V693.2H558.629V694.832H558.949L558.597 695.296C558.597 694.592 558.81 694.043 559.237 693.648C559.674 693.243 560.266 693.04 561.013 693.04C561.887 693.04 562.586 693.317 563.109 693.872C563.631 694.416 563.892 695.157 563.892 696.096V702H562.629V696.24C562.629 695.568 562.453 695.051 562.101 694.688C561.749 694.325 561.269 694.144 560.661 694.144C560.031 694.144 559.535 694.336 559.173 694.72C558.81 695.104 558.629 695.648 558.629 696.352V702H557.365ZM571.166 702C570.43 702 569.86 701.808 569.454 701.424C569.049 701.029 568.846 700.475 568.846 699.76V694.352H566.35V693.2H568.846V690.72H570.126V693.2H573.662V694.352H570.126V699.76C570.126 700.485 570.473 700.848 571.166 700.848H573.502V702H571.166ZM579.8 702.16C579.117 702.16 578.525 702.027 578.024 701.76C577.523 701.483 577.133 701.093 576.856 700.592C576.579 700.091 576.44 699.509 576.44 698.848V696.352C576.44 695.68 576.579 695.099 576.856 694.608C577.133 694.107 577.523 693.723 578.024 693.456C578.525 693.179 579.117 693.04 579.8 693.04C580.483 693.04 581.075 693.179 581.576 693.456C582.077 693.723 582.467 694.107 582.744 694.608C583.021 695.099 583.16 695.68 583.16 696.352V697.904H577.688V698.848C577.688 699.563 577.869 700.117 578.232 700.512C578.605 700.896 579.128 701.088 579.8 701.088C580.365 701.088 580.824 700.976 581.176 700.752C581.539 700.528 581.768 700.203 581.864 699.776H583.128C583.011 700.512 582.653 701.093 582.056 701.52C581.459 701.947 580.707 702.16 579.8 702.16ZM581.912 697.056V696.352C581.912 695.637 581.731 695.088 581.368 694.704C581.005 694.309 580.483 694.112 579.8 694.112C579.128 694.112 578.605 694.309 578.232 694.704C577.869 695.088 577.688 695.637 577.688 696.352V696.912H582.04L581.912 697.056ZM586.434 702V693.2H587.682V694.832H587.986L587.538 695.84C587.548 694.944 587.767 694.256 588.194 693.776C588.62 693.285 589.234 693.04 590.034 693.04C590.962 693.04 591.698 693.333 592.242 693.92C592.796 694.496 593.074 695.275 593.074 696.256V696.784H591.778V696.352C591.778 695.637 591.602 695.088 591.25 694.704C590.898 694.309 590.396 694.112 589.746 694.112C589.116 694.112 588.62 694.309 588.258 694.704C587.895 695.099 587.714 695.648 587.714 696.352V702H586.434ZM597.788 702V695.232H595.196V694.08H597.788V692.496C597.788 691.824 597.996 691.296 598.411 690.912C598.838 690.517 599.42 690.32 600.156 690.32H602.7V691.472H600.156C599.804 691.472 599.532 691.563 599.34 691.744C599.158 691.915 599.068 692.165 599.068 692.496V694.08H602.7V695.232H599.068V702H597.788ZM607.893 702.16C606.965 702.16 606.235 701.925 605.701 701.456C605.168 700.976 604.901 700.331 604.901 699.52C604.901 698.72 605.163 698.091 605.685 697.632C606.208 697.163 606.912 696.928 607.797 696.928H610.597V696C610.597 695.413 610.427 694.96 610.085 694.64C609.744 694.32 609.259 694.16 608.629 694.16C608.075 694.16 607.611 694.283 607.237 694.528C606.875 694.773 606.667 695.104 606.613 695.52H605.333C605.44 694.763 605.792 694.16 606.389 693.712C606.997 693.264 607.755 693.04 608.661 693.04C609.643 693.04 610.421 693.307 610.997 693.84C611.573 694.363 611.861 695.072 611.861 695.968V702H610.613V700.288H610.405L610.645 700.032C610.645 700.683 610.395 701.2 609.893 701.584C609.392 701.968 608.725 702.16 607.893 702.16ZM608.197 701.136C608.901 701.136 609.477 700.96 609.925 700.608C610.373 700.256 610.597 699.797 610.597 699.232V697.904H607.813C607.312 697.904 606.912 698.043 606.613 698.32C606.315 698.597 606.165 698.976 606.165 699.456C606.165 699.968 606.347 700.379 606.709 700.688C607.072 700.987 607.568 701.136 608.197 701.136ZM618.223 702.16C617.54 702.16 616.943 702.027 616.431 701.76C615.919 701.493 615.519 701.115 615.231 700.624C614.954 700.123 614.815 699.531 614.815 698.848V696.352C614.815 695.669 614.954 695.083 615.231 694.592C615.519 694.091 615.919 693.707 616.431 693.44C616.943 693.173 617.54 693.04 618.223 693.04C619.226 693.04 620.031 693.312 620.639 693.856C621.247 694.4 621.562 695.141 621.583 696.08H620.319C620.298 695.472 620.1 695.003 619.727 694.672C619.364 694.341 618.863 694.176 618.223 694.176C617.572 694.176 617.055 694.368 616.671 694.752C616.287 695.125 616.095 695.659 616.095 696.352V698.848C616.095 699.531 616.287 700.064 616.671 700.448C617.055 700.832 617.572 701.024 618.223 701.024C618.863 701.024 619.364 700.859 619.727 700.528C620.1 700.187 620.298 699.717 620.319 699.12H621.583C621.562 700.059 621.247 700.8 620.639 701.344C620.031 701.888 619.226 702.16 618.223 702.16ZM627.769 702.16C627.086 702.16 626.494 702.027 625.993 701.76C625.491 701.483 625.102 701.093 624.825 700.592C624.547 700.091 624.409 699.509 624.409 698.848V696.352C624.409 695.68 624.547 695.099 624.825 694.608C625.102 694.107 625.491 693.723 625.993 693.456C626.494 693.179 627.086 693.04 627.769 693.04C628.451 693.04 629.043 693.179 629.545 693.456C630.046 693.723 630.435 694.107 630.713 694.608C630.99 695.099 631.129 695.68 631.129 696.352V697.904H625.657V698.848C625.657 699.563 625.838 700.117 626.201 700.512C626.574 700.896 627.097 701.088 627.769 701.088C628.334 701.088 628.793 700.976 629.145 700.752C629.507 700.528 629.737 700.203 629.833 699.776H631.097C630.979 700.512 630.622 701.093 630.025 701.52C629.427 701.947 628.675 702.16 627.769 702.16ZM629.881 697.056V696.352C629.881 695.637 629.699 695.088 629.337 694.704C628.974 694.309 628.451 694.112 627.769 694.112C627.097 694.112 626.574 694.309 626.201 694.704C625.838 695.088 625.657 695.637 625.657 696.352V696.912H630.009L629.881 697.056ZM646.636 702.144C646.06 702.144 645.554 702.048 645.116 701.856C644.679 701.664 644.332 701.397 644.076 701.056C643.82 700.704 643.666 700.299 643.612 699.84H644.876C644.951 700.192 645.138 700.475 645.436 700.688C645.746 700.901 646.146 701.008 646.636 701.008H647.42C647.986 701.008 648.412 700.885 648.7 700.64C648.999 700.384 649.148 700.048 649.148 699.632C649.148 699.237 649.02 698.917 648.764 698.672C648.508 698.427 648.14 698.267 647.66 698.192L646.332 697.984C645.5 697.845 644.871 697.579 644.444 697.184C644.028 696.789 643.82 696.235 643.82 695.52C643.82 694.741 644.071 694.139 644.572 693.712C645.084 693.275 645.82 693.056 646.78 693.056H647.404C648.236 693.056 648.903 693.253 649.404 693.648C649.916 694.043 650.226 694.576 650.332 695.248H649.052C648.988 694.928 648.812 694.672 648.524 694.48C648.247 694.288 647.874 694.192 647.404 694.192H646.78C646.215 694.192 645.794 694.309 645.516 694.544C645.239 694.768 645.1 695.093 645.1 695.52C645.1 695.904 645.218 696.197 645.452 696.4C645.687 696.592 646.044 696.725 646.524 696.8L647.836 697.008C648.711 697.147 649.362 697.424 649.788 697.84C650.215 698.245 650.428 698.816 650.428 699.552C650.428 700.352 650.172 700.987 649.66 701.456C649.148 701.915 648.402 702.144 647.42 702.144H646.636ZM655.862 702.16C654.934 702.16 654.203 701.925 653.67 701.456C653.137 700.976 652.87 700.331 652.87 699.52C652.87 698.72 653.131 698.091 653.654 697.632C654.177 697.163 654.881 696.928 655.766 696.928H658.566V696C658.566 695.413 658.395 694.96 658.054 694.64C657.713 694.32 657.227 694.16 656.598 694.16C656.043 694.16 655.579 694.283 655.206 694.528C654.843 694.773 654.635 695.104 654.582 695.52H653.302C653.409 694.763 653.761 694.16 654.358 693.712C654.966 693.264 655.723 693.04 656.63 693.04C657.611 693.04 658.39 693.307 658.966 693.84C659.542 694.363 659.83 695.072 659.83 695.968V702H658.582V700.288H658.374L658.614 700.032C658.614 700.683 658.363 701.2 657.862 701.584C657.361 701.968 656.694 702.16 655.862 702.16ZM656.166 701.136C656.87 701.136 657.446 700.96 657.894 700.608C658.342 700.256 658.566 699.797 658.566 699.232V697.904H655.782C655.281 697.904 654.881 698.043 654.582 698.32C654.283 698.597 654.134 698.976 654.134 699.456C654.134 699.968 654.315 700.379 654.678 700.688C655.041 700.987 655.537 701.136 656.166 701.136ZM662.448 702V693.2H663.568V694.288H663.808L663.632 694.64C663.632 694.149 663.76 693.76 664.016 693.472C664.282 693.184 664.645 693.04 665.104 693.04C665.584 693.04 665.957 693.211 666.224 693.552C666.501 693.893 666.645 694.373 666.656 694.992L666.32 694.288H666.848L666.624 694.64C666.624 694.149 666.757 693.76 667.024 693.472C667.29 693.184 667.653 693.04 668.112 693.04C668.656 693.04 669.077 693.243 669.376 693.648C669.685 694.053 669.84 694.592 669.84 695.264V702H668.656V695.264C668.656 694.88 668.57 694.581 668.4 694.368C668.229 694.144 667.989 694.032 667.68 694.032C667.37 694.032 667.125 694.144 666.944 694.368C666.762 694.581 666.672 694.88 666.672 695.264V702H665.616V695.264C665.616 694.869 665.525 694.565 665.344 694.352C665.173 694.139 664.933 694.032 664.624 694.032C664.314 694.032 664.074 694.139 663.904 694.352C663.733 694.565 663.642 694.869 663.632 695.264V702H662.448ZM672.49 704.88V693.2H673.754V694.752H674.09L673.706 695.28C673.706 694.587 673.93 694.043 674.378 693.648C674.836 693.243 675.439 693.04 676.186 693.04C677.071 693.04 677.775 693.333 678.298 693.92C678.831 694.496 679.098 695.285 679.098 696.288V698.896C679.098 699.568 678.975 700.149 678.73 700.64C678.484 701.12 678.143 701.493 677.706 701.76C677.279 702.027 676.772 702.16 676.186 702.16C675.45 702.16 674.852 701.957 674.394 701.552C673.935 701.147 673.706 700.603 673.706 699.92L674.042 700.448H673.738L673.754 702.24V704.88H672.49ZM675.786 701.056C676.426 701.056 676.922 700.864 677.274 700.48C677.636 700.096 677.818 699.552 677.818 698.848V696.352C677.818 695.637 677.636 695.093 677.274 694.72C676.922 694.336 676.426 694.144 675.786 694.144C675.167 694.144 674.671 694.341 674.298 694.736C673.935 695.12 673.754 695.659 673.754 696.352V698.848C673.754 699.541 673.935 700.085 674.298 700.48C674.671 700.864 675.167 701.056 675.786 701.056ZM686.483 702C685.982 702 685.545 701.904 685.171 701.712C684.809 701.52 684.526 701.243 684.323 700.88C684.121 700.517 684.019 700.091 684.019 699.6V691.472H681.091V690.32H685.283V699.6C685.283 699.995 685.39 700.304 685.603 700.528C685.817 700.741 686.11 700.848 686.483 700.848H689.283V702H686.483ZM694.925 702.16C694.242 702.16 693.65 702.027 693.149 701.76C692.648 701.483 692.258 701.093 691.981 700.592C691.704 700.091 691.565 699.509 691.565 698.848V696.352C691.565 695.68 691.704 695.099 691.981 694.608C692.258 694.107 692.648 693.723 693.149 693.456C693.65 693.179 694.242 693.04 694.925 693.04C695.608 693.04 696.2 693.179 696.701 693.456C697.202 693.723 697.592 694.107 697.869 694.608C698.146 695.099 698.285 695.68 698.285 696.352V697.904H692.813V698.848C692.813 699.563 692.994 700.117 693.357 700.512C693.73 700.896 694.253 701.088 694.925 701.088C695.49 701.088 695.949 700.976 696.301 700.752C696.664 700.528 696.893 700.203 696.989 699.776H698.253C698.136 700.512 697.778 701.093 697.181 701.52C696.584 701.947 695.832 702.16 694.925 702.16ZM697.037 697.056V696.352C697.037 695.637 696.856 695.088 696.493 694.704C696.13 694.309 695.608 694.112 694.925 694.112C694.253 694.112 693.73 694.309 693.357 694.704C692.994 695.088 692.813 695.637 692.813 696.352V696.912H697.165L697.037 697.056ZM704.519 702.16C704.124 702.16 703.809 702.048 703.575 701.824C703.351 701.589 703.239 701.28 703.239 700.896C703.239 700.491 703.351 700.171 703.575 699.936C703.809 699.701 704.124 699.584 704.519 699.584C704.913 699.584 705.223 699.701 705.447 699.936C705.681 700.171 705.799 700.491 705.799 700.896C705.799 701.28 705.681 701.589 705.447 701.824C705.223 702.048 704.913 702.16 704.519 702.16ZM468.848 722V711.472H465.568V710.304H473.376V711.472H470.112V722H468.848ZM475.818 722V710.32H477.082V713.072V714.768H477.402L477.05 715.28C477.05 714.576 477.263 714.027 477.69 713.632C478.127 713.237 478.719 713.04 479.466 713.04C480.34 713.04 481.039 713.317 481.562 713.872C482.084 714.416 482.346 715.157 482.346 716.096V722H481.082V716.24C481.082 715.568 480.906 715.045 480.554 714.672C480.202 714.299 479.722 714.112 479.114 714.112C478.484 714.112 477.988 714.309 477.626 714.704C477.263 715.099 477.082 715.648 477.082 716.352V722H475.818ZM488.659 722.16C487.977 722.16 487.385 722.027 486.883 721.76C486.382 721.483 485.993 721.093 485.715 720.592C485.438 720.091 485.299 719.509 485.299 718.848V716.352C485.299 715.68 485.438 715.099 485.715 714.608C485.993 714.107 486.382 713.723 486.883 713.456C487.385 713.179 487.977 713.04 488.659 713.04C489.342 713.04 489.934 713.179 490.435 713.456C490.937 713.723 491.326 714.107 491.603 714.608C491.881 715.099 492.019 715.68 492.019 716.352V717.904H486.547V718.848C486.547 719.563 486.729 720.117 487.091 720.512C487.465 720.896 487.987 721.088 488.659 721.088C489.225 721.088 489.683 720.976 490.035 720.752C490.398 720.528 490.627 720.203 490.723 719.776H491.987C491.87 720.512 491.513 721.093 490.915 721.52C490.318 721.947 489.566 722.16 488.659 722.16ZM490.771 717.056V716.352C490.771 715.637 490.59 715.088 490.227 714.704C489.865 714.309 489.342 714.112 488.659 714.112C487.987 714.112 487.465 714.309 487.091 714.704C486.729 715.088 486.547 715.637 486.547 716.352V716.912H490.899L490.771 717.056ZM504.887 722V713.2H506.135V714.832H506.439L505.991 715.84C506.002 714.944 506.22 714.256 506.647 713.776C507.074 713.285 507.687 713.04 508.487 713.04C509.415 713.04 510.151 713.333 510.695 713.92C511.25 714.496 511.527 715.275 511.527 716.256V716.784H510.231V716.352C510.231 715.637 510.055 715.088 509.703 714.704C509.351 714.309 508.85 714.112 508.199 714.112C507.57 714.112 507.074 714.309 506.711 714.704C506.348 715.099 506.167 715.648 506.167 716.352V722H504.887ZM517.441 722.16C516.758 722.16 516.166 722.027 515.665 721.76C515.163 721.483 514.774 721.093 514.497 720.592C514.219 720.091 514.081 719.509 514.081 718.848V716.352C514.081 715.68 514.219 715.099 514.497 714.608C514.774 714.107 515.163 713.723 515.665 713.456C516.166 713.179 516.758 713.04 517.441 713.04C518.123 713.04 518.715 713.179 519.217 713.456C519.718 713.723 520.107 714.107 520.385 714.608C520.662 715.099 520.801 715.68 520.801 716.352V717.904H515.329V718.848C515.329 719.563 515.51 720.117 515.873 720.512C516.246 720.896 516.769 721.088 517.441 721.088C518.006 721.088 518.465 720.976 518.817 720.752C519.179 720.528 519.409 720.203 519.505 719.776H520.769C520.651 720.512 520.294 721.093 519.697 721.52C519.099 721.947 518.347 722.16 517.441 722.16ZM519.553 717.056V716.352C519.553 715.637 519.371 715.088 519.009 714.704C518.646 714.309 518.123 714.112 517.441 714.112C516.769 714.112 516.246 714.309 515.873 714.704C515.51 715.088 515.329 715.637 515.329 716.352V716.912H519.681L519.553 717.056ZM526.346 722.16C525.418 722.16 524.688 721.925 524.154 721.456C523.621 720.976 523.354 720.331 523.354 719.52C523.354 718.72 523.616 718.091 524.138 717.632C524.661 717.163 525.365 716.928 526.25 716.928H529.05V716C529.05 715.413 528.88 714.96 528.538 714.64C528.197 714.32 527.712 714.16 527.082 714.16C526.528 714.16 526.064 714.283 525.69 714.528C525.328 714.773 525.12 715.104 525.066 715.52H523.786C523.893 714.763 524.245 714.16 524.842 713.712C525.45 713.264 526.208 713.04 527.114 713.04C528.096 713.04 528.874 713.307 529.45 713.84C530.026 714.363 530.314 715.072 530.314 715.968V722H529.066V720.288H528.858L529.098 720.032C529.098 720.683 528.848 721.2 528.346 721.584C527.845 721.968 527.178 722.16 526.346 722.16ZM526.65 721.136C527.354 721.136 527.93 720.96 528.378 720.608C528.826 720.256 529.05 719.797 529.05 719.232V717.904H526.266C525.765 717.904 525.365 718.043 525.066 718.32C524.768 718.597 524.618 718.976 524.618 719.456C524.618 719.968 524.8 720.379 525.162 720.688C525.525 720.987 526.021 721.136 526.65 721.136ZM537.78 722C537.279 722 536.841 721.904 536.468 721.712C536.105 721.52 535.823 721.243 535.62 720.88C535.417 720.517 535.316 720.091 535.316 719.6V711.472H532.388V710.32H536.58V719.6C536.58 719.995 536.687 720.304 536.9 720.528C537.113 720.741 537.407 720.848 537.78 720.848H540.58V722H537.78ZM555.816 722.144C555.133 722.144 554.541 722.011 554.04 721.744C553.538 721.477 553.149 721.093 552.872 720.592C552.594 720.091 552.456 719.499 552.456 718.816V716.384C552.456 715.691 552.594 715.099 552.872 714.608C553.149 714.107 553.538 713.723 554.04 713.456C554.541 713.189 555.133 713.056 555.816 713.056C556.498 713.056 557.09 713.189 557.592 713.456C558.093 713.723 558.482 714.107 558.76 714.608C559.037 715.099 559.176 715.685 559.176 716.368V718.816C559.176 719.499 559.037 720.091 558.76 720.592C558.482 721.093 558.093 721.477 557.592 721.744C557.09 722.011 556.498 722.144 555.816 722.144ZM555.816 721.008C556.477 721.008 556.989 720.821 557.352 720.448C557.714 720.075 557.896 719.531 557.896 718.816V716.384C557.896 715.669 557.709 715.125 557.336 714.752C556.973 714.379 556.466 714.192 555.816 714.192C555.165 714.192 554.653 714.379 554.28 714.752C553.917 715.125 553.736 715.669 553.736 716.384V718.816C553.736 719.531 553.917 720.075 554.28 720.448C554.653 720.821 555.165 721.008 555.816 721.008ZM562.161 722V713.2H563.425V714.832H563.745L563.393 715.296C563.393 714.592 563.607 714.043 564.033 713.648C564.471 713.243 565.063 713.04 565.809 713.04C566.684 713.04 567.383 713.317 567.905 713.872C568.428 714.416 568.689 715.157 568.689 716.096V722H567.425V716.24C567.425 715.568 567.249 715.051 566.897 714.688C566.545 714.325 566.065 714.144 565.457 714.144C564.828 714.144 564.332 714.336 563.969 714.72C563.607 715.104 563.425 715.648 563.425 716.352V722H562.161ZM575.003 722.16C574.32 722.16 573.728 722.027 573.227 721.76C572.726 721.483 572.336 721.093 572.059 720.592C571.782 720.091 571.643 719.509 571.643 718.848V716.352C571.643 715.68 571.782 715.099 572.059 714.608C572.336 714.107 572.726 713.723 573.227 713.456C573.728 713.179 574.32 713.04 575.003 713.04C575.686 713.04 576.278 713.179 576.779 713.456C577.28 713.723 577.67 714.107 577.947 714.608C578.224 715.099 578.363 715.68 578.363 716.352V717.904H572.891V718.848C572.891 719.563 573.072 720.117 573.435 720.512C573.808 720.896 574.331 721.088 575.003 721.088C575.568 721.088 576.027 720.976 576.379 720.752C576.742 720.528 576.971 720.203 577.067 719.776H578.331C578.214 720.512 577.856 721.093 577.259 721.52C576.662 721.947 575.91 722.16 575.003 722.16ZM577.115 717.056V716.352C577.115 715.637 576.934 715.088 576.571 714.704C576.208 714.309 575.686 714.112 575.003 714.112C574.331 714.112 573.808 714.309 573.435 714.704C573.072 715.088 572.891 715.637 572.891 716.352V716.912H577.243L577.115 717.056ZM590.799 722V720.848H593.935V714.352H591.199V713.2H595.215V720.848H598.191V722H590.799ZM594.431 711.584C594.1 711.584 593.833 711.499 593.631 711.328C593.439 711.157 593.343 710.923 593.343 710.624C593.343 710.315 593.439 710.069 593.631 709.888C593.833 709.707 594.1 709.616 594.431 709.616C594.761 709.616 595.023 709.707 595.215 709.888C595.417 710.069 595.519 710.315 595.519 710.624C595.519 710.912 595.417 711.147 595.215 711.328C595.023 711.499 594.761 711.584 594.431 711.584ZM603.464 722.144C602.888 722.144 602.382 722.048 601.944 721.856C601.507 721.664 601.16 721.397 600.904 721.056C600.648 720.704 600.494 720.299 600.44 719.84H601.704C601.779 720.192 601.966 720.475 602.264 720.688C602.574 720.901 602.974 721.008 603.464 721.008H604.248C604.814 721.008 605.24 720.885 605.528 720.64C605.827 720.384 605.976 720.048 605.976 719.632C605.976 719.237 605.848 718.917 605.592 718.672C605.336 718.427 604.968 718.267 604.488 718.192L603.16 717.984C602.328 717.845 601.699 717.579 601.272 717.184C600.856 716.789 600.648 716.235 600.648 715.52C600.648 714.741 600.899 714.139 601.4 713.712C601.912 713.275 602.648 713.056 603.608 713.056H604.232C605.064 713.056 605.731 713.253 606.232 713.648C606.744 714.043 607.054 714.576 607.16 715.248H605.88C605.816 714.928 605.64 714.672 605.352 714.48C605.075 714.288 604.702 714.192 604.232 714.192H603.608C603.043 714.192 602.622 714.309 602.344 714.544C602.067 714.768 601.928 715.093 601.928 715.52C601.928 715.904 602.046 716.197 602.28 716.4C602.515 716.592 602.872 716.725 603.352 716.8L604.664 717.008C605.539 717.147 606.19 717.424 606.616 717.84C607.043 718.245 607.256 718.816 607.256 719.552C607.256 720.352 607 720.987 606.488 721.456C605.976 721.915 605.23 722.144 604.248 722.144H603.464ZM619.58 722V720.848H622.716V714.352H619.98V713.2H623.996V720.848H626.972V722H619.58ZM623.212 711.584C622.881 711.584 622.615 711.499 622.412 711.328C622.22 711.157 622.124 710.923 622.124 710.624C622.124 710.315 622.22 710.069 622.412 709.888C622.615 709.707 622.881 709.616 623.212 709.616C623.543 709.616 623.804 709.707 623.996 709.888C624.199 710.069 624.3 710.315 624.3 710.624C624.3 710.912 624.199 711.147 623.996 711.328C623.804 711.499 623.543 711.584 623.212 711.584ZM629.318 722V713.2H630.582V714.832H630.902L630.55 715.296C630.55 714.592 630.763 714.043 631.19 713.648C631.627 713.243 632.219 713.04 632.966 713.04C633.84 713.04 634.539 713.317 635.062 713.872C635.584 714.416 635.846 715.157 635.846 716.096V722H634.582V716.24C634.582 715.568 634.406 715.051 634.054 714.688C633.702 714.325 633.222 714.144 632.614 714.144C631.984 714.144 631.488 714.336 631.126 714.72C630.763 715.104 630.582 715.648 630.582 716.352V722H629.318ZM641.839 722.144C641.263 722.144 640.757 722.048 640.319 721.856C639.882 721.664 639.535 721.397 639.279 721.056C639.023 720.704 638.869 720.299 638.815 719.84H640.079C640.154 720.192 640.341 720.475 640.639 720.688C640.949 720.901 641.349 721.008 641.839 721.008H642.623C643.189 721.008 643.615 720.885 643.903 720.64C644.202 720.384 644.351 720.048 644.351 719.632C644.351 719.237 644.223 718.917 643.967 718.672C643.711 718.427 643.343 718.267 642.863 718.192L641.535 717.984C640.703 717.845 640.074 717.579 639.647 717.184C639.231 716.789 639.023 716.235 639.023 715.52C639.023 714.741 639.274 714.139 639.775 713.712C640.287 713.275 641.023 713.056 641.983 713.056H642.607C643.439 713.056 644.106 713.253 644.607 713.648C645.119 714.043 645.429 714.576 645.535 715.248H644.255C644.191 714.928 644.015 714.672 643.727 714.48C643.45 714.288 643.077 714.192 642.607 714.192H641.983C641.418 714.192 640.997 714.309 640.719 714.544C640.442 714.768 640.303 715.093 640.303 715.52C640.303 715.904 640.421 716.197 640.655 716.4C640.89 716.592 641.247 716.725 641.727 716.8L643.039 717.008C643.914 717.147 644.565 717.424 644.991 717.84C645.418 718.245 645.631 718.816 645.631 719.552C645.631 720.352 645.375 720.987 644.863 721.456C644.351 721.915 643.605 722.144 642.623 722.144H641.839ZM648.361 722V720.848H651.497V714.352H648.761V713.2H652.777V720.848H655.753V722H648.361ZM651.993 711.584C651.662 711.584 651.396 711.499 651.193 711.328C651.001 711.157 650.905 710.923 650.905 710.624C650.905 710.315 651.001 710.069 651.193 709.888C651.396 709.707 651.662 709.616 651.993 709.616C652.324 709.616 652.585 709.707 652.777 709.888C652.98 710.069 653.081 710.315 653.081 710.624C653.081 710.912 652.98 711.147 652.777 711.328C652.585 711.499 652.324 711.584 651.993 711.584ZM660.915 722.16C660.04 722.16 659.331 721.867 658.787 721.28C658.254 720.693 657.987 719.904 657.987 718.912V716.304C657.987 715.301 658.254 714.507 658.787 713.92C659.32 713.333 660.03 713.04 660.915 713.04C661.651 713.04 662.243 713.243 662.691 713.648C663.15 714.053 663.379 714.597 663.379 715.28L663.043 714.752H663.347L663.331 712.832V710.32H664.595V722H663.331V720.448H662.995L663.379 719.92C663.379 720.613 663.15 721.163 662.691 721.568C662.243 721.963 661.651 722.16 660.915 722.16ZM661.315 721.056C661.944 721.056 662.435 720.864 662.787 720.48C663.15 720.085 663.331 719.541 663.331 718.848V716.352C663.331 715.659 663.15 715.12 662.787 714.736C662.435 714.341 661.944 714.144 661.315 714.144C660.675 714.144 660.174 714.336 659.811 714.72C659.448 715.104 659.267 715.648 659.267 716.352V718.848C659.267 719.552 659.448 720.096 659.811 720.48C660.174 720.864 660.675 721.056 661.315 721.056ZM670.941 722.16C670.258 722.16 669.666 722.027 669.165 721.76C668.663 721.483 668.274 721.093 667.997 720.592C667.719 720.091 667.581 719.509 667.581 718.848V716.352C667.581 715.68 667.719 715.099 667.997 714.608C668.274 714.107 668.663 713.723 669.165 713.456C669.666 713.179 670.258 713.04 670.941 713.04C671.623 713.04 672.215 713.179 672.717 713.456C673.218 713.723 673.607 714.107 673.885 714.608C674.162 715.099 674.301 715.68 674.301 716.352V717.904H668.829V718.848C668.829 719.563 669.01 720.117 669.373 720.512C669.746 720.896 670.269 721.088 670.941 721.088C671.506 721.088 671.965 720.976 672.317 720.752C672.679 720.528 672.909 720.203 673.005 719.776H674.269C674.151 720.512 673.794 721.093 673.197 721.52C672.599 721.947 671.847 722.16 670.941 722.16ZM673.053 717.056V716.352C673.053 715.637 672.871 715.088 672.509 714.704C672.146 714.309 671.623 714.112 670.941 714.112C670.269 714.112 669.746 714.309 669.373 714.704C669.01 715.088 668.829 715.637 668.829 716.352V716.912H673.181L673.053 717.056ZM680.534 722.16C680.14 722.16 679.825 722.048 679.59 721.824C679.366 721.589 679.254 721.28 679.254 720.896C679.254 720.491 679.366 720.171 679.59 719.936C679.825 719.701 680.14 719.584 680.534 719.584C680.929 719.584 681.238 719.701 681.462 719.936C681.697 720.171 681.814 720.491 681.814 720.896C681.814 721.28 681.697 721.589 681.462 721.824C681.238 722.048 680.929 722.16 680.534 722.16Z" fill="#F3F3F3"/>
</svg>
