<svg width="60" height="60" viewBox="0 0 60 60" fill="none" xmlns="http://www.w3.org/2000/svg">
<rect width="60" height="60" rx="8" fill="#47474C"/>
<g clip-path="url(#clip0_2008_160902)">
<path d="M15.3712 37.6953C14.2021 37.6953 13 38.6312 13 40.2693C13 41.7669 14.057 42.8247 15.3712 42.8247C16.4561 42.8247 16.9396 42.0973 16.9396 42.0973V42.4144C16.9396 42.5642 17.0814 42.7315 17.257 42.7315H18.0412V37.8072H16.9396V38.4321C16.9396 38.4321 16.452 37.6953 15.3712 37.6953ZM15.5675 38.7022C16.5299 38.7022 17.0347 39.5478 17.0347 40.269C17.0347 41.0723 16.4353 41.8352 15.5695 41.8352C14.8457 41.8352 14.1207 41.2496 14.1207 40.2584C14.1207 39.3636 14.7446 38.7022 15.5675 38.7022Z" fill="white"/>
<path d="M19.5723 42.733C19.403 42.733 19.2549 42.6117 19.2549 42.4159V37.8087H20.3565V38.4181C20.6061 38.0433 21.0938 37.6953 21.8423 37.6953C23.0658 37.6953 23.7173 38.6696 23.7173 39.5807V42.733H22.9517C22.751 42.733 22.6157 42.5651 22.6157 42.3972V39.8232C22.6157 39.3182 22.3059 38.7049 21.5896 38.7049C20.8167 38.7049 20.3565 39.4346 20.3565 40.1216V42.733H19.5723Z" fill="white"/>
<path d="M26.9288 37.6939C25.7598 37.6939 24.5576 38.6298 24.5576 40.268C24.5576 41.7656 25.6146 42.8233 26.9288 42.8233C28.0137 42.8233 28.4972 42.0959 28.4972 42.0959V42.413C28.4972 42.5629 28.6391 42.7301 28.8146 42.7301H29.5988V35.3438H28.4972V38.4307C28.4972 38.4307 28.0097 37.6939 26.9288 37.6939ZM27.1251 38.7008C28.0875 38.7008 28.5923 39.5464 28.5923 40.2676C28.5923 41.0709 27.9929 41.8338 27.1271 41.8338C26.4034 41.8338 25.6784 41.2482 25.6784 40.257C25.6784 39.3622 26.3023 38.7008 27.1251 38.7008Z" fill="white"/>
<path d="M31.1299 42.7302C30.9607 42.7302 30.8125 42.6089 30.8125 42.4131V37.806H31.9141V38.6267C32.1037 38.1669 32.5129 37.75 33.2397 37.75C33.4424 37.75 33.6318 37.7873 33.6318 37.7873V38.9251C33.6318 38.9251 33.3953 38.8318 33.109 38.8318C32.3361 38.8318 31.9141 39.5616 31.9141 40.2486V42.7302H31.1299Z" fill="white"/>
<path d="M40.3155 42.7328C40.1462 42.7328 39.998 42.6115 39.998 42.4157V37.8086H41.0996V42.7328H40.3155Z" fill="white"/>
<path d="M44.3302 37.6939C43.1611 37.6939 41.959 38.6298 41.959 40.268C41.959 41.7656 43.0159 42.8233 44.3302 42.8233C45.4151 42.8233 45.8986 42.0959 45.8986 42.0959V42.413C45.8986 42.5629 46.0404 42.7301 46.216 42.7301H47.0002V35.3438H45.8986V38.4307C45.8986 38.4307 45.411 37.6939 44.3302 37.6939ZM44.5264 38.7008C45.4889 38.7008 45.9937 39.5464 45.9937 40.2676C45.9937 41.0709 45.3943 41.8338 44.5285 41.8338C43.8047 41.8338 43.0797 41.2482 43.0797 40.257C43.0797 39.3622 43.7036 38.7008 44.5264 38.7008Z" fill="white"/>
<path d="M40.5401 36.7448C40.9425 36.7448 41.2687 36.4189 41.2687 36.0169C41.2687 35.6149 40.9425 35.2891 40.5401 35.2891C40.1377 35.2891 39.8115 35.6149 39.8115 36.0169C39.8115 36.4189 40.1377 36.7448 40.5401 36.7448Z" fill="white"/>
<path d="M36.5363 37.6914C35.3119 37.6914 33.9668 38.6044 33.9668 40.2583C33.9668 41.7655 35.1125 42.8226 36.5336 42.8226C38.285 42.8226 39.1401 41.4161 39.1401 40.2679C39.1401 38.8588 38.039 37.6914 36.5363 37.6914ZM36.5403 38.7191C37.387 38.7191 38.0185 39.4008 38.0185 40.2614C38.0185 41.137 37.3481 41.8126 36.5428 41.8126C35.7953 41.8126 35.0686 41.2048 35.0686 40.2761C35.0686 39.332 35.7597 38.7191 36.5403 38.7191Z" fill="white"/>
<path d="M38.2982 18.9107L41.1167 14.0332C41.2757 13.7597 41.1796 13.4124 40.9096 13.2535C40.6395 13.0946 40.2882 13.187 40.1328 13.4604L37.2773 18.4008C35.0987 17.4068 32.6464 16.8526 30.0092 16.8526C27.3719 16.8526 24.9196 17.4068 22.741 18.4008L19.8855 13.4604C19.7265 13.187 19.3788 13.0946 19.1051 13.2535C18.8313 13.4124 18.7389 13.7597 18.8979 14.0332L21.7164 18.9107C16.8562 21.5416 13.5642 26.4561 13.0205 32.2094H46.9978C46.4541 26.4561 43.1621 21.5416 38.2982 18.9107ZM22.2084 27.4427C21.4205 27.4427 20.7843 26.8035 20.7843 26.0201C20.7843 25.2331 21.4242 24.5975 22.2084 24.5975C22.9962 24.5975 23.6324 25.2367 23.6324 26.0201C23.6361 26.8035 22.9962 27.4427 22.2084 27.4427ZM37.8062 27.4427C37.0184 27.4427 36.3822 26.8035 36.3822 26.0201C36.3822 25.2331 37.0221 24.5975 37.8062 24.5975C38.5941 24.5975 39.2303 25.2367 39.2303 26.0201C39.234 26.8035 38.5941 27.4427 37.8062 27.4427Z" fill="white"/>
</g>
<defs>
<clipPath id="clip0_2008_160902">
<rect width="34" height="34" fill="white" transform="translate(13 11)"/>
</clipPath>
</defs>
</svg>
