<svg width="60" height="60" viewBox="0 0 60 60" fill="none" xmlns="http://www.w3.org/2000/svg">
<rect width="60" height="60" rx="8" fill="#47474C"/>
<path d="M25.578 44.9987C20.8155 44.9713 16.876 35.2493 16.876 30.2981C16.876 22.2103 22.9432 20.4397 25.2814 20.4397C26.3352 20.4397 27.4604 20.8535 28.4528 21.2197C29.1468 21.4752 29.8645 21.7388 30.2637 21.7388C30.5027 21.7388 31.0657 21.5145 31.5629 21.3177C32.623 20.8957 33.9423 20.3711 35.4785 20.3711C35.4813 20.3711 35.485 20.3711 35.4877 20.3711C36.6348 20.3711 40.1129 20.6228 42.204 23.7631L42.6938 24.4992L41.9889 25.0311C40.9818 25.791 39.1443 27.1771 39.1443 29.9228C39.1443 33.1747 41.2253 34.4253 42.225 35.0268C42.6664 35.2923 43.1232 35.5661 43.1232 36.1648C43.1232 36.5558 40.003 44.9502 35.4721 44.9502C34.3634 44.9502 33.5797 44.617 32.8885 44.3231C32.189 44.0255 31.5857 43.7692 30.5887 43.7692C30.0833 43.7692 29.4442 44.0082 28.7677 44.2618C27.8431 44.6068 26.7966 44.9987 25.6092 44.9987H25.578Z" fill="white"/>
<path d="M35.9581 13C36.0761 17.2547 33.0333 20.2065 29.994 20.0214C29.4932 16.6259 33.0329 13 35.9581 13Z" fill="white"/>
</svg>
